<?xml version="1.0" standalone="no"?>
<svg xmlns:xlink="http://www.w3.org/1999/xlink" id="wave" style="transform:rotate(180deg); transition: 0.3s" viewBox="0 0 1440 130" version="1.1" xmlns="http://www.w3.org/2000/svg"><defs><linearGradient id="sw-gradient-0" x1="0" x2="0" y1="1" y2="0"><stop stop-color="rgba(86, 43, 45, 1)" offset="0%"/><stop stop-color="rgba(86, 43, 45, 1)" offset="100%"/></linearGradient></defs><path style="transform:translate(0, 0px); opacity:1" fill="url(#sw-gradient-0)" d="M0,39L60,34.7C120,30,240,22,360,23.8C480,26,600,39,720,43.3C840,48,960,43,1080,41.2C1200,39,1320,39,1440,52C1560,65,1680,91,1800,91C1920,91,2040,65,2160,56.3C2280,48,2400,56,2520,65C2640,74,2760,82,2880,80.2C3000,78,3120,65,3240,65C3360,65,3480,78,3600,69.3C3720,61,3840,30,3960,32.5C4080,35,4200,69,4320,86.7C4440,104,4560,104,4680,88.8C4800,74,4920,43,5040,26C5160,9,5280,4,5400,8.7C5520,13,5640,26,5760,26C5880,26,6000,13,6120,6.5C6240,0,6360,0,6480,10.8C6600,22,6720,43,6840,60.7C6960,78,7080,91,7200,84.5C7320,78,7440,52,7560,36.8C7680,22,7800,17,7920,21.7C8040,26,8160,39,8280,43.3C8400,48,8520,43,8580,41.2L8640,39L8640,130L8580,130C8520,130,8400,130,8280,130C8160,130,8040,130,7920,130C7800,130,7680,130,7560,130C7440,130,7320,130,7200,130C7080,130,6960,130,6840,130C6720,130,6600,130,6480,130C6360,130,6240,130,6120,130C6000,130,5880,130,5760,130C5640,130,5520,130,5400,130C5280,130,5160,130,5040,130C4920,130,4800,130,4680,130C4560,130,4440,130,4320,130C4200,130,4080,130,3960,130C3840,130,3720,130,3600,130C3480,130,3360,130,3240,130C3120,130,3000,130,2880,130C2760,130,2640,130,2520,130C2400,130,2280,130,2160,130C2040,130,1920,130,1800,130C1680,130,1560,130,1440,130C1320,130,1200,130,1080,130C960,130,840,130,720,130C600,130,480,130,360,130C240,130,120,130,60,130L0,130Z"/></svg>